<svg viewBox="0 0 600 200" style="display: block; margin: 0 auto; overflow: hidden; font-family: 'Segoe UI', Tahoma, Geneva, Verdana, sans-serif;" xmlns="http://www.w3.org/2000/svg" width="100%" height="auto">
  
  <defs>
    <pattern id="dotGrid" width="20" height="20" patternUnits="userSpaceOnUse">
      <circle cx="2" cy="2" r="1.5" fill="#2a2a2a" />
    </pattern>
  </defs>
  
  <rect width="100%" height="100%" fill="#121212" />
  
  <rect width="100%" height="100%" fill="url(#dotGrid)" />

  <g transform="translate(140, 68)">
    
    <path d="M 0 5 
             A 5 5 0 0 1 5 0 
             H 15 l 4 4 h 10 l 4 -4 
             H 315 A 5 5 0 0 1 320 5 
             V 59 A 5 5 0 0 1 315 64 
             H 33 l -4 4 h -10 l -4 -4 
             H 5 A 5 5 0 0 1 0 59 Z" 
          fill="#105735" 
          stroke="#24754a" 
          stroke-width="1.5" />
          
    <text x="14" y="24" fill="#6d7a9c" font-size="16" font-weight="900">›</text>
    
    <text x="32" y="23" fill="white" font-size="13" font-weight="700">Dept:</text>
    
    <text x="115" y="49" fill="white" font-size="13" font-weight="700">Total: KES</text>
    
    <rect x="195" y="34" width="85" height="20" rx="6" fill="#759c87" />
    
  </g>
</svg>
