<svg viewBox="0 0 680 40" style="display: block; margin: 0 auto; overflow: visible; font-family: sans-serif;" xmlns="http://www.w3.org/2000/svg" width="680" height="40">
  <path d="M 0 5 
           A 5 5 0 0 1 5 0 
           H 15 l 4 4 h 10 l 4 -4 
           H 675 A 5 5 0 0 1 680 5 
           V 27 A 5 5 0 0 1 675 32 
           H 33 l -4 4 h -10 l -4 -4 
           H 5 A 5 5 0 0 1 0 27 Z" 
        fill="#f0a020" />
  
  <text x="10" y="21" fill="white" font-size="13">&#11166;</text>
  <text x="25" y="21" fill="white" font-size="13">Item:</text>
  
  <text x="175" y="21" fill="white" font-size="13">Q1</text>
  <rect x="195" y="6" width="30" height="20" rx="10" fill="#f4d197" />
  
  <text x="235" y="21" fill="white" font-size="13">Q2</text>
  <rect x="255" y="6" width="30" height="20" rx="10" fill="#f4d197" />
  
  <text x="295" y="21" fill="white" font-size="13">Q3</text>
  <rect x="315" y="6" width="30" height="20" rx="10" fill="#f4d197" />
  
  <text x="355" y="21" fill="white" font-size="13">Q4</text>
  <rect x="375" y="6" width="30" height="20" rx="10" fill="#f4d197" />
  
  <text x="420" y="21" fill="white" font-size="13">Qty:</text>
  <text x="500" y="21" fill="white" font-size="13">Total: KES</text>
</svg>
